<svg id="Capa_1" data-name="Capa 1" xmlns="http://www.w3.org/2000/svg" viewBox="0 0 16 16"><path d="M14.94,14.33a13.69,13.69,0,0,0-2.68-1.71,14.86,14.86,0,0,0-2.54-1.07.15.15,0,0,0-.2.06l-.66,1a20.08,20.08,0,0,1,2.24.89,15.5,15.5,0,0,1,3.06,2c.15.13.31.36.46.35s.29-.27.42-.43.45-.37.42-.56S15.13,14.48,14.94,14.33Z" fill="#e42322"/><path d="M1.09,5.81H4.56c.09,0,.2-.06.26.05a6.32,6.32,0,0,0-.6.56l1.32.92A7.75,7.75,0,0,1,6.69,8.48c.07.1.12,0,.18,0,.22-.22.44-.45.67-.66s.08-.17,0-.28a5.87,5.87,0,0,0-1-.94,9.08,9.08,0,0,0-1.23-.77,1.46,1.46,0,0,1,.29,0h8.11A4.46,4.46,0,0,1,13,7.57c-.08.14,0,.19.09.23l1,.31c.1,0,.17,0,.22-.09a6.73,6.73,0,0,0,.73-3.09c0-.4,0-.4-.43-.37H9.48c-.21,0-.42,0-.63,0s-.21,0-.21-.21a6.91,6.91,0,0,0,0-.91c0-.22.07-.25.27-.25h5.22c.09,0,.19,0,.27,0,0-.36,0-.71,0-1.07,0-.11,0-.15-.15-.15H9c-.25.05-.33,0-.32-.3,0-.4,0-.81,0-1.21,0-.18-.06-.22-.22-.21H7.49c-.16,0-.21,0-.21.2,0,.43,0,.86,0,1.28,0,.21-.06.25-.25.25-.76,0-1.52,0-2.28,0h-3c-.13,0-.16.06-.16.17a7.3,7.3,0,0,1,0,.81c0,.25.07.29.29.29H7.28c0,.45,0,.91,0,1.36H4.92L1,4.54c-.13,0-.17,0-.16.17,0,.28,0,.56,0,.83S.87,5.81,1.09,5.81Zm3.73.05Z" fill="#e42322"/><path d="M15.62,10c0-.11,0-.15-.15-.14H9.4l0-.37h0a7.76,7.76,0,0,0,.19-2.15c0-.29,0-.59,0-.89,0-.14-.06-.19-.19-.21L8.46,6c-.14,0-.18,0-.18.14,0,.63,0,1.26,0,1.88s-.11,1-.21,1.54c0,.18-.09.24-.28.24H4.71a2.86,2.86,0,0,1,.56-.64c.12-.13.11-.2,0-.33A6.28,6.28,0,0,0,3,7.12c-.07,0-.12-.07-.19,0L2,7.89a7.05,7.05,0,0,1,2.4,2H.81c-.18,0-.25,0-.24.23a4.21,4.21,0,0,1,0,.71c0,.25,0,.34.32.33H7.22l.32,0A5.18,5.18,0,0,1,6,12.75a9.53,9.53,0,0,1-4,1.45c-.54.09-1.09.14-1.67.2l.83,1.18c.06.08.13.06.21.05A16.84,16.84,0,0,0,4.48,15a7.29,7.29,0,0,0,4.43-3.67.35.35,0,0,1,.35-.22h6.08c.08,0,.19.06.26,0h0C15.61,10.7,15.61,10.34,15.62,10ZM6.81,11.05s0,0,0,0l0,0Zm.73.07Z" fill="#e42322"/></svg>