<svg id="Capa_1" data-name="Capa 1" xmlns="http://www.w3.org/2000/svg" viewBox="0 0 170 25"><defs><style>.cls-1{fill:#e42322;}</style></defs><title>logo Mai horizontal</title><path class="cls-1" d="M118.29,21.12a15.94,15.94,0,0,0-3-1.9A18,18,0,0,0,112.49,18a.15.15,0,0,0-.21.08c-.24.34-.48.68-.73,1.05a21.51,21.51,0,0,1,2.49,1,17.33,17.33,0,0,1,3.39,2.21c.17.15.34.4.51.4s.32-.3.47-.48.5-.41.47-.62S118.51,21.29,118.29,21.12Z"/><path class="cls-1" d="M102.91,11.66h3.86c.1,0,.22-.07.29.06a6.56,6.56,0,0,0-.67.62l1.47,1a8.9,8.9,0,0,1,1.27,1.26c.08.11.14.06.2,0,.25-.25.49-.51.75-.74s.09-.19,0-.31a6.09,6.09,0,0,0-1.11-1,8.53,8.53,0,0,0-1.35-.85,1.16,1.16,0,0,1,.32,0h9a5.27,5.27,0,0,1-.76,2c-.1.16-.06.2.1.25l1.13.35c.11,0,.19,0,.24-.1a7.31,7.31,0,0,0,.81-3.43c0-.45,0-.45-.48-.42h-5.76c-.23,0-.46,0-.69,0s-.24,0-.24-.23a8.51,8.51,0,0,0,0-1c0-.24.08-.28.29-.28h5.81c.1,0,.21.06.29-.05,0-.39,0-.79,0-1.18,0-.13,0-.17-.16-.17l-1.88,0h-3.85a.47.47,0,0,0-.17,0c-.28,0-.37-.06-.35-.35,0-.44,0-.89,0-1.33,0-.2-.06-.25-.24-.24q-.52,0-1,0c-.18,0-.23,0-.23.23,0,.47,0,1,0,1.42,0,.23-.07.27-.28.27-.84,0-1.68,0-2.53,0l-3.31,0c-.15,0-.18.06-.17.19a9,9,0,0,1,0,.9c0,.28.08.32.33.32h6c0,.5,0,1,0,1.51h-2.6l-4.36,0c-.13,0-.18.05-.18.19,0,.31,0,.62,0,.92S102.67,11.66,102.91,11.66Zm4.15.06Z"/><path class="cls-1" d="M119.05,16.3c0-.13,0-.17-.16-.17l-2.06,0h-4.68l0-.41h0a8.73,8.73,0,0,0,.22-2.39c0-.33,0-.66,0-1,0-.17-.06-.22-.21-.24l-1.11-.22c-.16,0-.2,0-.2.17,0,.69,0,1.39,0,2.09s-.12,1.14-.23,1.7c0,.21-.1.27-.31.27-1.14,0-2.28,0-3.42,0a3,3,0,0,1,.62-.72c.13-.13.11-.22,0-.35a6.84,6.84,0,0,0-2.53-2c-.07,0-.13-.07-.21,0l-1,.86a7.83,7.83,0,0,1,2.66,2.16c-1.35,0-2.64,0-3.93,0-.2,0-.28,0-.26.25a5.21,5.21,0,0,1,0,.79c0,.28,0,.37.35.37,2.35,0,4.69,0,7,0l.34,0a5.45,5.45,0,0,1-1.69,1.82A10.64,10.64,0,0,1,104,21c-.6.1-1.21.15-1.86.22l.93,1.31c.06.09.14.07.23,0a18.85,18.85,0,0,0,3.4-.71,8.16,8.16,0,0,0,4.92-4.08.38.38,0,0,1,.39-.24h6.75c.09,0,.21.06.29-.05h0C119,17.09,119,16.69,119.05,16.3Zm-9.78,1.18v0l0,0Zm.8.07Z"/><path d="M6.62,20.92,9.13,8.38h-5l.73-3.62H19.37l-.74,3.62H13.7L11.19,20.92Z"/><path d="M17.64,20.92,20.13,8.4h4.36L22,20.92ZM22.92,7a2.54,2.54,0,0,1-1.83-.64,2,2,0,0,1-.68-1.53,2.35,2.35,0,0,1,.77-1.78,2.93,2.93,0,0,1,2-.71,2.73,2.73,0,0,1,1.85.6,1.91,1.91,0,0,1,.69,1.5A2.35,2.35,0,0,1,25,6.3,2.9,2.9,0,0,1,22.92,7Z"/><path d="M31.89,21.12a8.05,8.05,0,0,1-3.49-.7,5.29,5.29,0,0,1-3.15-5,7.22,7.22,0,0,1,.94-3.7,6.87,6.87,0,0,1,2.66-2.58,8,8,0,0,1,4-.94,7.26,7.26,0,0,1,3.29.69,5.09,5.09,0,0,1,2.12,1.93A5.41,5.41,0,0,1,39,13.69a7.26,7.26,0,0,1-.07,1.06q-.07.51-.18,1h-10l.41-2.3h7.59l-1.83.67a2.64,2.64,0,0,0,0-1.52,1.86,1.86,0,0,0-.81-.94,2.63,2.63,0,0,0-1.39-.34,2.8,2.8,0,0,0-1.75.53,3.2,3.2,0,0,0-1,1.45,5.7,5.7,0,0,0-.33,2,2.34,2.34,0,0,0,.71,1.9,3.21,3.21,0,0,0,2.14.62A5,5,0,0,0,34,17.51a4.7,4.7,0,0,0,1.4-.75l1.82,2.75a7.55,7.55,0,0,1-2.55,1.24A10.51,10.51,0,0,1,31.89,21.12Z"/><path d="M49.85,8.2a5.29,5.29,0,0,1,2.7.65,3.68,3.68,0,0,1,1.58,1.94,5.94,5.94,0,0,1,.08,3.2l-1.39,6.93H48.44l1.29-6.51a2.5,2.5,0,0,0-.15-1.85,1.6,1.6,0,0,0-1.48-.65,2.65,2.65,0,0,0-1.87.7,3.83,3.83,0,0,0-1.06,2.12l-1.24,6.19H39.54L42,8.4h4.16l-.72,3.51-.55-1a5.52,5.52,0,0,1,2.22-2.06A6.12,6.12,0,0,1,49.85,8.2Z"/><path d="M61.43,21.12a5.24,5.24,0,0,1-4.52-2.61,5.85,5.85,0,0,1-.76-3.09,7.5,7.5,0,0,1,.53-2.88,7.06,7.06,0,0,1,1.46-2.29,6.57,6.57,0,0,1,2.17-1.51A6.49,6.49,0,0,1,63,8.2a5.71,5.71,0,0,1,2.38.46,3.41,3.41,0,0,1,1.61,1.49,5.51,5.51,0,0,1,.57,2.69A12.47,12.47,0,0,1,67.12,16,8.79,8.79,0,0,1,66,18.63,5.84,5.84,0,0,1,64,20.45,5,5,0,0,1,61.43,21.12ZM63,17.59a2.66,2.66,0,0,0,1.55-.44,3,3,0,0,0,1-1.22,4.17,4.17,0,0,0,.38-1.82,2.46,2.46,0,0,0-.62-1.75,2.26,2.26,0,0,0-1.73-.65,2.7,2.7,0,0,0-1.53.45A3,3,0,0,0,61,13.39a4,4,0,0,0-.38,1.82,2.35,2.35,0,0,0,.62,1.73A2.25,2.25,0,0,0,63,17.59Zm1.84,3.33.44-2.11L66,14.68l.57-4.13L68,3.79h4.38L68.94,20.92Z"/><path d="M77.45,21.12a5.21,5.21,0,0,1-2.56-.67,5,5,0,0,1-2-1.94,5.94,5.94,0,0,1-.75-3.09,7.69,7.69,0,0,1,.53-2.88,7.06,7.06,0,0,1,1.46-2.29,6.79,6.79,0,0,1,2.17-1.51A6.43,6.43,0,0,1,79,8.2a5.35,5.35,0,0,1,2.61.59,3.49,3.49,0,0,1,1.61,1.89,7.55,7.55,0,0,1,.23,3.52,10.58,10.58,0,0,1-1,3.67,6.16,6.16,0,0,1-2,2.41A5.12,5.12,0,0,1,77.45,21.12ZM79,17.59a2.73,2.73,0,0,0,1.55-.44,3,3,0,0,0,1-1.22,4,4,0,0,0,.38-1.82,2.42,2.42,0,0,0-.62-1.75,2.28,2.28,0,0,0-1.75-.65,2.7,2.7,0,0,0-1.53.45A3,3,0,0,0,77,13.39a4,4,0,0,0-.38,1.82,2.35,2.35,0,0,0,.62,1.73A2.28,2.28,0,0,0,79,17.59Zm1.84,3.33.44-2.11.83-4.13.56-4.13.43-2.15h4.38L85,20.92Z"/><path d="M92.67,21.12a13.19,13.19,0,0,1-3.14-.36,7.51,7.51,0,0,1-2.28-.86l1.59-3.07a7.06,7.06,0,0,0,2,.85,9.16,9.16,0,0,0,2.28.3,3.6,3.6,0,0,0,1.55-.24.74.74,0,0,0,.46-.66c0-.24-.16-.42-.47-.54a7.34,7.34,0,0,0-1.22-.29c-.49-.07-1-.17-1.55-.3a7.35,7.35,0,0,1-1.56-.53,3.22,3.22,0,0,1-1.21-1,2.81,2.81,0,0,1-.47-1.7,3.68,3.68,0,0,1,.88-2.51A5.23,5.23,0,0,1,92,8.7a10.9,10.9,0,0,1,3.4-.5,12.83,12.83,0,0,1,2.58.25,8.24,8.24,0,0,1,2.17.74l-1.54,3.07a6,6,0,0,0-1.89-.75,9.37,9.37,0,0,0-1.82-.2,3.11,3.11,0,0,0-1.55.28.78.78,0,0,0-.46.67c0,.23.16.41.47.54a5.72,5.72,0,0,0,1.2.32l1.56.3a7.06,7.06,0,0,1,1.55.52,3.18,3.18,0,0,1,1.2,1,2.71,2.71,0,0,1,.48,1.69,3.67,3.67,0,0,1-.89,2.49A5.38,5.38,0,0,1,96,20.62,10.68,10.68,0,0,1,92.67,21.12Z"/><path d="M120.86,20.91l3.23-16.16h3.72l4.45,11h-2l8.63-11h3.9l-3.18,16.16h-4.22l1.91-9.78.76,0-6.39,8.22h-2l-3.48-8.24.8.07-2,9.76Z"/><path d="M148.37,21.12a5.24,5.24,0,0,1-2.56-.67,5.16,5.16,0,0,1-2-1.94,6,6,0,0,1-.75-3.09,7.74,7.74,0,0,1,.53-2.89,6.88,6.88,0,0,1,1.47-2.28,6.64,6.64,0,0,1,2.16-1.51,6.35,6.35,0,0,1,2.62-.55,5.48,5.48,0,0,1,2.62.59,3.48,3.48,0,0,1,1.61,1.89,7.43,7.43,0,0,1,.23,3.52,10.57,10.57,0,0,1-1,3.68,6.23,6.23,0,0,1-2,2.41A5.13,5.13,0,0,1,148.37,21.12Zm1.53-3.53a2.75,2.75,0,0,0,1.54-.44,2.92,2.92,0,0,0,1.05-1.22,4.07,4.07,0,0,0,.39-1.83,2.42,2.42,0,0,0-.63-1.74,2.28,2.28,0,0,0-1.75-.66,2.75,2.75,0,0,0-1.54.45,3,3,0,0,0-1.06,1.24,4.17,4.17,0,0,0-.38,1.82,2.41,2.41,0,0,0,.62,1.73A2.34,2.34,0,0,0,149.9,17.59Zm1.84,3.32.44-2.1.83-4.13.56-4.13L154,8.4h4.38L155.9,20.91Z"/><path d="M158.72,20.91,161.21,8.4h4.36l-2.49,12.51ZM164,7a2.58,2.58,0,0,1-1.83-.64,2,2,0,0,1-.68-1.53,2.31,2.31,0,0,1,.77-1.78,2.87,2.87,0,0,1,2-.72,2.73,2.73,0,0,1,1.85.6,1.91,1.91,0,0,1,.69,1.5,2.39,2.39,0,0,1-.78,1.85A2.94,2.94,0,0,1,164,7Z"/><path class="cls-1" d="M146.84,4s5.06,7.3,12.3,0C159.14,4,152.89,6.72,146.84,4Z"/></svg>