<svg id="Capa_1" data-name="Capa 1" xmlns="http://www.w3.org/2000/svg" viewBox="0 0 170 25"><path d="M118.29,21.12a15.94,15.94,0,0,0-3-1.9A18,18,0,0,0,112.49,18a.15.15,0,0,0-.21.08c-.24.34-.48.68-.73,1.05a21.51,21.51,0,0,1,2.49,1,17.33,17.33,0,0,1,3.39,2.21c.17.15.34.4.51.4s.32-.3.47-.48.5-.41.47-.62S118.51,21.29,118.29,21.12Z" fill="#e42322"/><path d="M102.91,11.66h3.86c.1,0,.22-.07.29.06a6.56,6.56,0,0,0-.67.62l1.47,1a8.9,8.9,0,0,1,1.27,1.26c.08.11.14.06.2,0,.25-.25.49-.51.75-.74s.09-.19,0-.31a6.09,6.09,0,0,0-1.11-1,8.53,8.53,0,0,0-1.35-.85,1.16,1.16,0,0,1,.32,0h9a5.27,5.27,0,0,1-.76,2c-.1.16-.06.2.1.25l1.13.35c.11,0,.19,0,.24-.1a7.31,7.31,0,0,0,.81-3.43c0-.45,0-.45-.48-.42h-5.76c-.23,0-.46,0-.69,0s-.24,0-.24-.23a8.51,8.51,0,0,0,0-1c0-.24.08-.28.29-.28h5.81c.1,0,.21.06.29-.05,0-.39,0-.79,0-1.18,0-.13,0-.17-.16-.17l-1.88,0h-3.85a.47.47,0,0,0-.17,0c-.28,0-.37-.06-.35-.35,0-.44,0-.89,0-1.33,0-.2-.06-.25-.24-.24q-.52,0-1,0c-.18,0-.23,0-.23.23,0,.47,0,1,0,1.42,0,.23-.07.27-.28.27-.84,0-1.68,0-2.53,0l-3.31,0c-.15,0-.18.06-.17.19a9,9,0,0,1,0,.9c0,.28.08.32.33.32h6c0,.5,0,1,0,1.51h-2.6l-4.36,0c-.13,0-.18.05-.18.19,0,.31,0,.62,0,.92S102.67,11.66,102.91,11.66Zm4.15.06Z" fill="#e42322"/><path d="M119.05,16.3c0-.13,0-.17-.16-.17l-2.06,0h-4.68l0-.41h0a8.73,8.73,0,0,0,.22-2.39c0-.33,0-.66,0-1,0-.17-.06-.22-.21-.24l-1.11-.22c-.16,0-.2,0-.2.17,0,.69,0,1.39,0,2.09s-.12,1.14-.23,1.7c0,.21-.1.27-.31.27-1.14,0-2.28,0-3.42,0a3,3,0,0,1,.62-.72c.13-.13.11-.22,0-.35a6.84,6.84,0,0,0-2.53-2c-.07,0-.13-.07-.21,0l-1,.86a7.83,7.83,0,0,1,2.66,2.16c-1.35,0-2.64,0-3.93,0-.2,0-.28,0-.26.25a5.21,5.21,0,0,1,0,.79c0,.28,0,.37.35.37,2.35,0,4.69,0,7,0l.34,0a5.45,5.45,0,0,1-1.69,1.82A10.64,10.64,0,0,1,104,21c-.6.1-1.21.15-1.86.22l.93,1.31c.06.09.14.07.23,0a18.85,18.85,0,0,0,3.4-.71,8.16,8.16,0,0,0,4.92-4.08.38.38,0,0,1,.39-.24h6.75c.09,0,.21.06.29-.05h0C119,17.09,119,16.69,119.05,16.3Zm-9.78,1.18v0l0,0Zm.8.07Z" fill="#e42322"/><text transform="translate(2.84 20.92)" font-size="23.08" font-family="Montserrat-ExtraBoldItalic, Montserrat" font-weight="800" font-style="italic">Tie<tspan x="36.59" y="0" letter-spacing="0em">n</tspan><tspan x="52.72" y="0">das </tspan></text><text transform="translate(120.49 20.91)" font-size="23.08" font-family="Montserrat-ExtraBoldItalic, Montserrat" font-weight="800" font-style="italic">Mai</text><path d="M146.84,4s5.06,7.3,12.3,0C159.14,4,152.89,6.72,146.84,4Z" fill="#e42322"/></svg>